<svg id="Слой_1" data-name="Слой 1" xmlns="http://www.w3.org/2000/svg"
     viewBox="0 0 33 31">
  <defs>
    <style>
      .cls-1{fill:#266dc2;}.cls-2{fill:none;}.cls-3{fill:none;stroke:#8dc1e3;}.cls-3,.cls-4{stroke-linecap:round;stroke-linejoin:round;stroke-width:0.75px;}.cls-4{fill:#7dcdff;stroke:#42a9e3;}
    </style>
  </defs>
  <title>Icons</title>
  <path class="cls-1"
        d="M6.58,13v8.37H23V13Zm5.53,6.36-1-1.51-1,1.51H8.87l1.61-2.22L9,15h1.14l1,1.41,1-1.41h1.08l-1.51,2.1,1.62,2.25Zm4.75,0H13.67V15h1v3.53h2.19Zm3.6-.6a1.3,1.3,0,0,1-.62.49,2.57,2.57,0,0,1-1,.18,3.31,3.31,0,0,1-1-.14,2.21,2.21,0,0,1-.77-.36l.34-.76a2.15,2.15,0,0,0,.66.33,2.63,2.63,0,0,0,.77.12,1.32,1.32,0,0,0,.64-.12.4.4,0,0,0,.2-.34.32.32,0,0,0-.12-.26.82.82,0,0,0-.31-.16,4.35,4.35,0,0,0-.51-.14,7.15,7.15,0,0,1-.82-.24,1.27,1.27,0,0,1-.54-.38,1,1,0,0,1-.23-.69,1.17,1.17,0,0,1,.21-.69,1.36,1.36,0,0,1,.62-.49A2.5,2.5,0,0,1,19,15a3.74,3.74,0,0,1,.81.1,2.34,2.34,0,0,1,.7.29l-.31.76A2.44,2.44,0,0,0,19,15.76a1.11,1.11,0,0,0-.62.14.41.41,0,0,0-.21.36.35.35,0,0,0,.24.33,3.7,3.7,0,0,0,.71.21,6.91,6.91,0,0,1,.81.24,1.45,1.45,0,0,1,.55.37,1,1,0,0,1,.22.69A1.16,1.16,0,0,1,20.46,18.78Z"/>
  <path class="cls-2"
        d="M31,.75A1.25,1.25,0,0,1,32.25,2V29A1.25,1.25,0,0,1,31,30.25H2A1.25,1.25,0,0,1,.75,29V2A1.25,1.25,0,0,1,2,.75H31M31,0H2A2,2,0,0,0,0,2V29a2,2,0,0,0,2,2H31a2,2,0,0,0,2-2V2a2,2,0,0,0-2-2Z"/>
  <polygon class="cls-3"
           points="6.58 5.5 6.58 25.5 22.96 25.5 22.96 10.25 18.21 5.5 6.58 5.5"/>
  <polygon class="cls-3" points="18.21 5.5 22.96 10.25 18.21 10.25 18.21 5.5"/>
  <polygon class="cls-4"
           points="24.2 21.37 24.2 18.09 22.96 18.09 21.72 18.09 21.72 21.37 19.5 21.37 22.96 25.5 26.42 21.37 24.2 21.37"/>
</svg>
