<svg width="130" height="130" viewBox="0 0 130 130" fill="none"
     xmlns="http://www.w3.org/2000/svg">
  <path
    d="M63.903 74.5C78.4501 74.5 90.2426 54.9225 90.2426 42.4982C90.2426 30.0711 78.4501 20 63.903 20C49.3572 20 37.5626 30.0711 37.564 42.4982C37.564 54.9225 49.3565 74.5 63.903 74.5ZM75.9775 72.4989H54.0253C35.2345 72.4989 20 85.5091 20 101.558V103.434C20 109.994 34.7092 123.5 53.5 123.5H65H77C95.7887 123.5 110 109.758 110 103.434V101.559C110 85.5091 94.7676 72.4989 75.9775 72.4989Z"
    fill="#0088AA"/>
  <circle cx="65" cy="65" r="61" stroke="#0088AA" stroke-width="8"/>
</svg>
