<svg xmlns="http://www.w3.org/2000/svg" viewBox="0 0 16 16"><defs><style>.a{fill:#a5ddff;}.a,.b{stroke:#8dc1e3;stroke-linecap:round;stroke-linejoin:round;}.b{fill:none;}</style></defs><title>Icons 3</title><path class="a" d="M15.09,11.51,13,9.42a1.39,1.39,0,0,0-2.32.52,1.42,1.42,0,0,1-1.64.9A6.46,6.46,0,0,1,5.15,7a1.36,1.36,0,0,1,.9-1.65A1.39,1.39,0,0,0,6.57,3L4.48.89a1.5,1.5,0,0,0-2,0L1,2.31c-1.42,1.5.15,5.46,3.66,9s7.48,5.16,9,3.67l1.42-1.42A1.48,1.48,0,0,0,15.09,11.51Z"/><line class="b" x1="1.5" y1="14.5" x2="14.5" y2="1.5"/></svg>