<svg xmlns="http://www.w3.org/2000/svg" viewBox="0 0 64 64"><defs><style>.a{fill:none;stroke:#8dc1e3;stroke-linecap:round;stroke-linejoin:round;stroke-width:2px;}</style></defs><title>Icons 3</title><path class="a" d="M1,5.92V32H32V1H5.92A4.93,4.93,0,0,0,1,5.92Z"/><rect class="a" x="32" y="32" width="31" height="15.5"/><rect class="a" x="32" y="16.5" width="31" height="15.5"/><path class="a" d="M63,5.92A4.93,4.93,0,0,0,58.08,1H32V16.5H63Z"/><path class="a" d="M32,63H58.08A4.93,4.93,0,0,0,63,58.08V47.5H32Z"/><rect class="a" x="1" y="32" width="31" height="15.5"/><path class="a" d="M32,63H5.92A4.93,4.93,0,0,1,1,58.08V47.5H32Z"/></svg>