<svg xmlns="http://www.w3.org/2000/svg" viewBox="0 0 32 32"><defs><style>.a{fill:#a5ddff;}.a,.b{stroke:#8dc1e3;stroke-linecap:round;stroke-linejoin:round;}.b{fill:none;}</style></defs><title>Icons 3</title><path class="a" d="M8,9.27V16h8V8H9.27A1.27,1.27,0,0,0,8,9.27Z"/><rect class="b" x="16" y="16" width="8" height="4"/><rect class="b" x="16" y="12" width="8" height="4"/><path class="b" d="M24,9.27A1.27,1.27,0,0,0,22.73,8H16v4h8Z"/><path class="b" d="M16,24h6.73A1.27,1.27,0,0,0,24,22.73V20H16Z"/><rect class="b" x="8" y="16" width="8" height="4"/><path class="b" d="M16,24H9.27A1.27,1.27,0,0,1,8,22.73V20h8Z"/><rect class="b" x="0.5" y="0.5" width="31" height="31" rx="2"/></svg>