<svg xmlns="http://www.w3.org/2000/svg" viewBox="0 0 16 16"><defs><style>.a{fill:none;stroke:#5cb18e;stroke-linecap:round;stroke-linejoin:round;}</style></defs><title>Icons 3</title><path class="a" d="M6.24,2.94l-3.3,3.3,2.71,3L9.24,5.65Z"/><path class="a" d="M4.41.85.85,4.41a1.17,1.17,0,0,0,0,1.67l.28.29a1.2,1.2,0,0,0,1.68,0L6.37,2.81a1.2,1.2,0,0,0,0-1.68L6.08.85A1.17,1.17,0,0,0,4.41.85Z"/><path class="a" d="M15.12,5.78a8.53,8.53,0,0,0-3.69-1.06,2.72,2.72,0,0,0-2,.78L5.5,9.39a2.72,2.72,0,0,0-.78,2,8.53,8.53,0,0,0,1.06,3.69.57.57,0,0,0,.91.13l8.56-8.56a.57.57,0,0,0-.13-.91Z"/><line class="a" x1="15.5" y1="15.5" x2="10.97" y2="10.97"/></svg>