<svg xmlns="http://www.w3.org/2000/svg" viewBox="0 0 32 32"><defs><style>.a{fill:none;}.a,.b{stroke:#ff8419;stroke-linecap:round;stroke-linejoin:round;}.b{fill:#ffbf8f;}</style></defs><title>Icons 3</title><path class="a" d="M30.88,23.09,20,4.28a4.62,4.62,0,0,0-8,0L1.13,23.09a4.64,4.64,0,0,0,4,7H26.83A4.67,4.67,0,0,0,30.88,23.09Z"/><path class="b" d="M16,25.88a1.73,1.73,0,0,1,0-3.46,1.7,1.7,0,0,1,1.69,1.78A1.69,1.69,0,0,1,16,25.88Z"/><path class="b" d="M17.58,14.7l-.24,4c0,.43,0,.83,0,1.25A1.3,1.3,0,0,1,16,21.23,1.27,1.27,0,0,1,14.7,20c-.12-2.09-.24-4.13-.35-6.22l-.12-1.65a1.87,1.87,0,0,1,1.34-1.89,1.74,1.74,0,0,1,2,1,2.11,2.11,0,0,1,.16.87C17.7,13,17.61,13.84,17.58,14.7Z"/></svg>