<svg width="12" height="8" viewBox="0 0 12 8" fill="#94949D" xmlns="http://www.w3.org/2000/svg">
  <path d="M12 1.14226C12 1.26124 11.9596 1.36623 11.88 1.45862L6.27673 7.86282C6.19714 7.95381 6.10408 8 6 8C5.89592 8 5.80408 7.95381 5.72327 7.86282L0.12 1.45722C0.0404082 1.36623 0 1.25984 0 1.14086C0 1.02187 0.0404082 0.916885 0.12 0.824497L0.721224 0.137183C0.800816 0.0461943 0.893878 0 0.997959 0C1.10204 0 1.19388 0.0461943 1.27469 0.137183L6 5.54051L10.7253 0.138583C10.8049 0.0475942 10.898 0.00139991 11.002 0.00139991C11.1061 0.00139991 11.198 0.0475942 11.2788 0.138583L11.88 0.825897C11.9596 0.916886 12 1.02187 12 1.14226Z" fill="#ffffff"/>
</svg>
