<svg width="24" height="24" viewBox="0 0 24 24" fill="none" xmlns="http://www.w3.org/2000/svg">
  <path fill-rule="evenodd" clip-rule="evenodd" d="M19.3467 9.252L11.252 17.3467C10.7307 17.868 9.88667 17.868 9.36667 17.3467L5.98533 13.9667C5.46533 13.4453 5.46533 12.6013 5.98533 12.08C6.50667 11.56 7.35067 11.56 7.87067 12.08L10.3093 14.5187L17.4613 7.36667C17.9813 6.84533 18.8253 6.84533 19.3467 7.36667C19.868 7.88667 19.868 8.73067 19.3467 9.252ZM12 0C5.372 0 0 5.372 0 12C0 18.6267 5.372 24 12 24C18.6267 24 24 18.6267 24 12C24 5.372 18.6267 0 12 0Z" fill="#3BB182"/>
</svg>
