<svg width="24" height="24" viewBox="0 0 24 24" fill="none" xmlns="http://www.w3.org/2000/svg">
  <path d="M12 24C18.6274 24 24 18.6274 24 12C24 5.37258 18.6274 0 12 0C5.37258 0 0 5.37258 0 12C0 18.6274 5.37258 24 12 24Z" fill="#00656A"/>
  <path fill-rule="evenodd" clip-rule="evenodd" d="M13.2938 8.07682L15.8253 10.6207L9.86187 16.6155L7.33182 14.0716L13.2938 8.07682ZM17.7462 7.4633L16.6173 6.32883C16.181 5.89039 15.4725 5.89039 15.0347 6.32883L13.9533 7.41554L16.4848 9.95942L17.7462 8.69183C18.0846 8.35175 18.0846 7.80335 17.7462 7.4633ZM6.00704 17.6472C5.96097 17.8556 6.14817 18.0423 6.35553 17.9916L9.17644 17.3043L6.6464 14.7604L6.00704 17.6472Z" fill="white"/>
</svg>
