<svg id="Слой_1" data-name="Слой 1" xmlns="http://www.w3.org/2000/svg" viewBox="0 0 33 31"><defs><style>.cls-1{fill:#e7ebed;}.cls-2{fill:#a5ddff;stroke:#8dc1e3;}.cls-2,.cls-3{stroke-linecap:round;stroke-linejoin:round;stroke-width:0.75px;}.cls-3{fill:#fff;stroke:#ff8419;}.cls-4{fill:#ff8419;}</style></defs><title>Icons</title><path class="cls-1" d="M31,.75A1.25,1.25,0,0,1,32.25,2V29A1.25,1.25,0,0,1,31,30.25H2A1.25,1.25,0,0,1,.75,29V2A1.25,1.25,0,0,1,2,.75H31M31,0H2A2,2,0,0,0,0,2V29a2,2,0,0,0,2,2H31a2,2,0,0,0,2-2V2a2,2,0,0,0-2-2Z"/><polygon class="cls-2" points="16.5 6.91 7.5 6.91 7.5 9.4 13.63 15.54 16.5 15.54 19.36 15.54 25.5 9.4 25.5 6.91 16.5 6.91"/><polygon class="cls-2" points="14.99 15.54 14.99 21.89 18.01 24.09 18.01 15.54 14.99 15.54"/><rect class="cls-3" x="20.79" y="4.02" width="7.5" height="7.5"/><rect class="cls-4" x="23.79" y="5.52" width="1.53" height="2.25"/><rect class="cls-4" x="23.79" y="8.55" width="1.53" height="1.53"/></svg>