<svg width="33" height="31" viewBox="0 0 33 31" fill="none" xmlns="http://www.w3.org/2000/svg">
<g clip-path="url(#clip0)">
<path d="M31 0.75C31.3315 0.75 31.6495 0.881696 31.8839 1.11612C32.1183 1.35054 32.25 1.66848 32.25 2V29C32.25 29.3315 32.1183 29.6495 31.8839 29.8839C31.6495 30.1183 31.3315 30.25 31 30.25H2C1.66848 30.25 1.35054 30.1183 1.11612 29.8839C0.881696 29.6495 0.75 29.3315 0.75 29V2C0.75 1.66848 0.881696 1.35054 1.11612 1.11612C1.35054 0.881696 1.66848 0.75 2 0.75H31ZM31 0H2C1.46957 0 0.960859 0.210714 0.585786 0.585786C0.210714 0.960859 0 1.46957 0 2L0 29C0 29.5304 0.210714 30.0391 0.585786 30.4142C0.960859 30.7893 1.46957 31 2 31H31C31.5304 31 32.0391 30.7893 32.4142 30.4142C32.7893 30.0391 33 29.5304 33 29V2C33 1.46957 32.7893 0.960859 32.4142 0.585786C32.0391 0.210714 31.5304 0 31 0V0Z" fill="#E7EBED"/>
<path d="M18.21 5.5L22.96 10.25H18.21V5.5Z" stroke="#8DC1E3" stroke-width="0.75" stroke-linecap="round" stroke-linejoin="round"/>
<rect x="7" y="13" width="16.3" height="9" fill="#FF8199"/>
<path d="M6.57999 5.5V25.5H22.96V10.25L18.21 5.5H6.57999Z" stroke="#8DC1E3" stroke-width="0.75" stroke-linecap="round" stroke-linejoin="round"/>
<path d="M10.3647 18.3718V20H9.4126V15.3789H11.2153C11.5623 15.3789 11.867 15.4424 12.1294 15.5693C12.3939 15.6963 12.597 15.8772 12.7388 16.1121C12.8805 16.3448 12.9514 16.6104 12.9514 16.9087C12.9514 17.3615 12.7959 17.7191 12.4849 17.9814C12.1759 18.2417 11.7475 18.3718 11.1995 18.3718H10.3647ZM10.3647 17.6006H11.2153C11.4671 17.6006 11.6586 17.5413 11.7898 17.4229C11.9231 17.3044 11.9897 17.1351 11.9897 16.915C11.9897 16.6886 11.9231 16.5056 11.7898 16.366C11.6565 16.2263 11.4724 16.1544 11.2375 16.1501H10.3647V17.6006ZM13.6084 20V15.3789H15.0303C15.4365 15.3789 15.7994 15.4709 16.1189 15.655C16.4405 15.837 16.6912 16.0972 16.8711 16.4358C17.0509 16.7722 17.1409 17.1552 17.1409 17.5847V17.7974C17.1409 18.2269 17.052 18.6088 16.8743 18.9431C16.6986 19.2774 16.45 19.5366 16.1284 19.7207C15.8068 19.9048 15.4439 19.9979 15.0398 20H13.6084ZM14.5605 16.1501V19.2351H15.0208C15.3931 19.2351 15.6777 19.1134 15.8745 18.8701C16.0713 18.6268 16.1718 18.2787 16.176 17.8259V17.5815C16.176 17.1118 16.0787 16.7563 15.884 16.5151C15.6894 16.2718 15.4048 16.1501 15.0303 16.1501H14.5605ZM20.6162 18.1116H18.7881V20H17.8359V15.3789H20.8447V16.1501H18.7881V17.3435H20.6162V18.1116Z" fill="white"/>
<path d="M24.2 21.37V18.09H22.96H21.72V21.37H19.5L22.96 25.5L26.42 21.37H24.2Z" fill="#7DCDFF" stroke="#42A9E3" stroke-width="0.75" stroke-linecap="round" stroke-linejoin="round"/>
</g>
<defs>
<clipPath id="clip0">
<rect width="33" height="31" fill="white"/>
</clipPath>
</defs>
</svg>
