<?xml version="1.0" encoding="UTF-8"?>
<svg width="30px" height="30px" viewBox="0 0 30 30" version="1.1" xmlns="http://www.w3.org/2000/svg" xmlns:xlink="http://www.w3.org/1999/xlink">
    <!-- Generator: Sketch 41 (35326) - http://www.bohemiancoding.com/sketch -->
    <title>icon logout</title>
    <desc>Created with Sketch.</desc>
    <defs></defs>
    <g id="Symbols" stroke="none" stroke-width="1" fill="none" fill-rule="evenodd">
        <g id="icon-logout" fill="#273142">
            <path d="M14.3684211,3 C8.10063158,3 3,8.15966667 3,14.5 C3,20.8403333 8.10063158,26 14.3684211,26 C18.2981053,26 21.7626316,23.9645 23.8026316,20.8888889 L20.5263158,20.8888889 C18.9334737,22.4618333 16.7646316,23.4444444 14.3684211,23.4444444 C9.49263158,23.4444444 5.52631579,19.4322222 5.52631579,14.5 C5.52631579,9.56777778 9.49263158,5.55555556 14.3684211,5.55555556 C16.7646316,5.55555556 18.9334737,6.53816667 20.5263158,8.11111111 L23.8026316,8.11111111 C21.7626316,5.0355 18.2981053,3 14.3684211,3 Z M20.6842105,9.38888889 L20.6842105,13.2222222 L11.8421053,13.2222222 L11.8421053,15.7777778 L20.6842105,15.7777778 L20.6842105,19.6111111 L27,14.5 L20.6842105,9.38888889 Z"></path>
        </g>
    </g>
</svg>