<svg width="64" height="64" viewBox="0 0 64 64" fill="none" xmlns="http://www.w3.org/2000/svg">
  <mask id="path-1-inside-1" fill="white">
    <path fill-rule="evenodd" clip-rule="evenodd" d="M28.0001 11C28.0001 9.34315 29.3432 8 31.0001 8H32.0001C33.657 8 35.0001 9.34315 35.0001 11V31.3114L40.9526 25.3255C42.1209 24.1506 44.0151 24.1506 45.1833 25.3255L45.8851 26.0311C47.0534 27.206 47.0534 29.1108 45.8851 30.2856L34.238 41.9979C34.1664 42.0782 34.0904 42.1545 34.0106 42.2267L33.6742 42.5649C33.0741 43.1684 32.2824 43.4619 31.496 43.4454C30.7124 43.4596 29.9243 43.166 29.3263 42.5647L28.9946 42.2311C28.9113 42.1562 28.8322 42.0767 28.7577 41.993L17.1155 30.2854C15.9472 29.1106 15.9472 27.2058 17.1155 26.031L17.8172 25.3253C18.9855 24.1505 20.8797 24.1505 22.048 25.3253L28.0001 31.3108V11Z"/>
  </mask>
  <path fill-rule="evenodd" clip-rule="evenodd" d="M28.0001 11C28.0001 9.34315 29.3432 8 31.0001 8H32.0001C33.657 8 35.0001 9.34315 35.0001 11V31.3114L40.9526 25.3255C42.1209 24.1506 44.0151 24.1506 45.1833 25.3255L45.8851 26.0311C47.0534 27.206 47.0534 29.1108 45.8851 30.2856L34.238 41.9979C34.1664 42.0782 34.0904 42.1545 34.0106 42.2267L33.6742 42.5649C33.0741 43.1684 32.2824 43.4619 31.496 43.4454C30.7124 43.4596 29.9243 43.166 29.3263 42.5647L28.9946 42.2311C28.9113 42.1562 28.8322 42.0767 28.7577 41.993L17.1155 30.2854C15.9472 29.1106 15.9472 27.2058 17.1155 26.031L17.8172 25.3253C18.9855 24.1505 20.8797 24.1505 22.048 25.3253L28.0001 31.3108V11Z" fill="#FFBF8F"/>
  <path d="M35.0001 31.3114H33.4001V35.1894L36.1346 32.4396L35.0001 31.3114ZM40.9526 25.3255L39.8181 24.1973L39.8181 24.1973L40.9526 25.3255ZM45.1833 25.3255L44.0488 26.4537L44.0488 26.4537L45.1833 25.3255ZM45.8851 26.0311L47.0196 24.9029L47.0196 24.9029L45.8851 26.0311ZM45.8851 30.2856L44.7505 29.1574L44.7505 29.1574L45.8851 30.2856ZM34.238 41.9979L33.1035 40.8697L33.0733 40.9001L33.0448 40.932L34.238 41.9979ZM34.0106 42.2267L32.938 41.0395L32.9062 41.0681L32.8761 41.0985L34.0106 42.2267ZM33.6742 42.5649L34.8088 43.6931L34.8088 43.6931L33.6742 42.5649ZM31.496 43.4454L31.5296 41.8457L31.4983 41.8451L31.467 41.8456L31.496 43.4454ZM29.3263 42.5647L28.1918 43.6929L28.1918 43.6929L29.3263 42.5647ZM28.9946 42.2311L30.1291 41.1029L30.0977 41.0713L30.0645 41.0415L28.9946 42.2311ZM28.7577 41.993L29.9533 40.9296L29.9237 40.8963L29.8922 40.8648L28.7577 41.993ZM17.1155 30.2854L18.25 29.1572L18.25 29.1572L17.1155 30.2854ZM17.1155 26.031L15.9809 24.9028L15.9809 24.9028L17.1155 26.031ZM17.8172 25.3253L18.9517 26.4535L18.9517 26.4535L17.8172 25.3253ZM22.048 25.3253L23.1825 24.1971L23.1825 24.1971L22.048 25.3253ZM28.0001 31.3108L26.8656 32.439L29.6001 35.1889V31.3108H28.0001ZM31.0001 6.4C28.4596 6.4 26.4001 8.45949 26.4001 11H29.6001C29.6001 10.2268 30.2269 9.6 31.0001 9.6V6.4ZM32.0001 6.4H31.0001V9.6H32.0001V6.4ZM36.6001 11C36.6001 8.45949 34.5406 6.4 32.0001 6.4V9.6C32.7733 9.6 33.4001 10.2268 33.4001 11H36.6001ZM36.6001 31.3114V11H33.4001V31.3114H36.6001ZM36.1346 32.4396L42.0871 26.4537L39.8181 24.1973L33.8656 30.1831L36.1346 32.4396ZM42.0871 26.4537C42.6299 25.9079 43.5061 25.9079 44.0488 26.4537L46.3179 24.1973C44.524 22.3934 41.6119 22.3934 39.8181 24.1973L42.0871 26.4537ZM44.0488 26.4537L44.7505 27.1593L47.0196 24.9029L46.3179 24.1973L44.0488 26.4537ZM44.7505 27.1593C45.2982 27.7101 45.2982 28.6067 44.7505 29.1574L47.0196 31.4138C48.8085 29.6149 48.8085 26.7019 47.0196 24.9029L44.7505 27.1593ZM44.7505 29.1574L33.1035 40.8697L35.3726 43.1262L47.0196 31.4138L44.7505 29.1574ZM35.0832 43.4139C35.2054 43.3035 35.3215 43.1867 35.4312 43.0639L33.0448 40.932C33.0112 40.9697 32.9755 41.0055 32.938 41.0395L35.0832 43.4139ZM32.8761 41.0985L32.5397 41.4367L34.8088 43.6931L35.1451 43.3549L32.8761 41.0985ZM32.5397 41.4367C32.2597 41.7183 31.8953 41.8534 31.5296 41.8457L31.4624 45.045C32.6696 45.0704 33.8885 44.6186 34.8088 43.6931L32.5397 41.4367ZM28.1918 43.6929C29.1087 44.615 30.3222 45.0669 31.525 45.0451L31.467 41.8456C31.1026 41.8523 30.7398 41.7171 30.4608 41.4365L28.1918 43.6929ZM27.86 43.3593L28.1918 43.6929L30.4608 41.4365L30.1291 41.1029L27.86 43.3593ZM27.5622 43.0563C27.6761 43.1844 27.7971 43.3061 27.9246 43.4207L30.0645 41.0415C30.0254 41.0063 29.9883 40.969 29.9533 40.9296L27.5622 43.0563ZM15.9809 31.4136L27.6232 43.1212L29.8922 40.8648L18.25 29.1572L15.9809 31.4136ZM15.9809 24.9028C14.192 26.7017 14.192 29.6147 15.9809 31.4136L18.25 29.1572C17.7023 28.6065 17.7023 27.7099 18.25 27.1592L15.9809 24.9028ZM16.6827 24.1971L15.9809 24.9028L18.25 27.1592L18.9517 26.4535L16.6827 24.1971ZM23.1825 24.1971C21.3886 22.3932 18.4765 22.3932 16.6827 24.1971L18.9517 26.4535C19.4945 25.9077 20.3707 25.9077 20.9134 26.4535L23.1825 24.1971ZM29.1346 30.1826L23.1825 24.1971L20.9134 26.4535L26.8656 32.439L29.1346 30.1826ZM26.4001 11V31.3108H29.6001V11H26.4001Z" fill="#FF8419" mask="url(#path-1-inside-1)"/>
  <path fill-rule="evenodd" clip-rule="evenodd" d="M20.155 14.6855H15.9213C14.363 14.6855 12.8629 15.2555 11.7524 16.2785C10.7003 17.2476 10.0788 18.5498 10.0152 19.9264C10.0094 20.0441 10.0075 20.1621 10.0099 20.2803V46.7766C9.99491 47.5086 10.138 48.2352 10.4299 48.9141C10.7222 49.5941 11.1576 50.2116 11.7091 50.7315C12.2604 51.2513 12.9168 51.6634 13.6394 51.9451C14.3619 52.2267 15.1371 52.3729 15.92 52.3755L15.9213 52.3755H30.6671C30.6731 52.3758 30.6792 52.376 30.6853 52.376H47.0558C48.6142 52.376 50.1142 51.806 51.2248 50.783C52.2769 49.8139 52.8984 48.5117 52.9619 47.1351C52.9678 47.0174 52.9696 46.8994 52.9673 46.7812V20.2849C52.9822 19.5529 52.8392 18.8263 52.5473 18.1474C52.2549 17.4674 51.8195 16.8499 51.2681 16.3301C50.7167 15.8102 50.0603 15.3982 49.3377 15.1165C48.6152 14.8348 47.84 14.6887 47.0571 14.686L47.0558 14.686H42.9521V15.436H47.0546C47.7462 15.4383 48.4298 15.5675 49.0653 15.8152C49.7008 16.063 50.2744 16.424 50.7536 16.8757C51.2327 17.3275 51.6076 17.8608 51.8583 18.4437C52.1089 19.0265 52.2306 19.6482 52.2174 20.273L52.2173 20.273V20.281V31.7122L52.2172 31.7205V46.7805H52.2171L52.2173 46.7885L52.2173 46.7889V46.901C52.2173 46.9677 52.2157 47.0344 52.2127 47.1008C52.1863 47.6197 52.067 48.1323 51.8582 48.6178C51.6076 49.2008 51.2326 49.7341 50.7535 50.1858C50.2743 50.6376 49.7007 50.9985 49.0652 51.2463C48.4298 51.494 47.7461 51.6232 47.0545 51.6255H15.9226C15.2309 51.6232 14.5473 51.494 13.9118 51.2463C13.2764 50.9985 12.7027 50.6376 12.2236 50.1858C11.7444 49.7341 11.3695 49.2008 11.1189 48.6178C10.8683 48.035 10.7465 47.4133 10.7598 46.7885L10.7599 46.7885V46.7805V35.3493L10.7599 35.341V20.281H10.76L10.7599 20.273L10.7599 20.2727V20.1605C10.7599 20.0938 10.7614 20.0272 10.7645 19.9607C10.7908 19.4418 10.9102 18.9292 11.119 18.4437C11.3696 17.8608 11.7445 17.3275 12.2237 16.8757C12.7028 16.424 13.2765 16.063 13.9119 15.8152C14.5474 15.5675 15.231 15.4383 15.9227 15.436H20.155V14.6855Z" fill="#FF8419"/>
  <path d="M20.155 14.6855H20.655C20.655 14.4094 20.4311 14.1855 20.155 14.1855V14.6855ZM11.7524 16.2785L12.0911 16.6462L12.0911 16.6462L11.7524 16.2785ZM10.0152 19.9264L10.5146 19.9514L10.5147 19.9494L10.0152 19.9264ZM10.0099 20.2803H10.5099L10.5098 20.2706L10.0099 20.2803ZM10.0099 46.7766L10.5099 46.7869V46.7766H10.0099ZM10.4299 48.9141L9.97051 49.1116L9.97051 49.1116L10.4299 48.9141ZM11.7091 50.7315L12.0521 50.3677L12.0521 50.3677L11.7091 50.7315ZM13.6394 51.9451L13.821 51.4792L13.821 51.4792L13.6394 51.9451ZM15.92 52.3755L15.9183 52.8755L15.9185 52.8755L15.92 52.3755ZM15.9213 52.3755L15.9198 52.8755H15.9213V52.3755ZM30.6671 52.3755L30.6911 51.8761C30.6831 51.8757 30.6751 51.8755 30.6671 51.8755V52.3755ZM51.2248 50.783L51.5635 51.1508L51.5635 51.1508L51.2248 50.783ZM52.9619 47.1351L52.4625 47.1101L52.4624 47.1121L52.9619 47.1351ZM52.9673 46.7812H52.4672L52.4674 46.791L52.9673 46.7812ZM52.9673 20.2849L52.4673 20.2747V20.2849H52.9673ZM52.5473 18.1474L53.0066 17.9499L53.0066 17.9499L52.5473 18.1474ZM51.2681 16.3301L50.9251 16.6938L50.9251 16.6938L51.2681 16.3301ZM49.3377 15.1165L49.1561 15.5823L49.1561 15.5823L49.3377 15.1165ZM47.0571 14.686L47.0588 14.186L47.0586 14.186L47.0571 14.686ZM47.0558 14.686L47.0573 14.186H47.0558V14.686ZM42.9521 14.686V14.186C42.676 14.186 42.4521 14.4098 42.4521 14.686H42.9521ZM42.9521 15.436H42.4521C42.4521 15.7121 42.676 15.936 42.9521 15.936V15.436ZM47.0546 15.436L47.0563 14.936H47.0546V15.436ZM49.0653 15.8152L48.8837 16.2811L48.8837 16.2811L49.0653 15.8152ZM50.7536 16.8757L50.4106 17.2395L50.4106 17.2395L50.7536 16.8757ZM51.8583 18.4437L52.3176 18.2462L52.3176 18.2462L51.8583 18.4437ZM52.2174 20.273L52.206 20.7729C52.3387 20.7759 52.4672 20.726 52.5631 20.6343C52.659 20.5425 52.7144 20.4163 52.7173 20.2836L52.2174 20.273ZM52.2173 20.273L52.2287 19.7732C52.0941 19.7701 51.964 19.8214 51.8678 19.9155C51.7715 20.0096 51.7173 20.1384 51.7173 20.273H52.2173ZM52.2173 31.7122L52.7173 31.7176V31.7122H52.2173ZM52.2172 31.7205L51.7172 31.7151V31.7205H52.2172ZM52.2172 46.7805V47.2805C52.4933 47.2805 52.7172 47.0567 52.7172 46.7805H52.2172ZM52.2171 46.7805V46.2805C52.0827 46.2805 51.9539 46.3347 51.8599 46.4307C51.7658 46.5268 51.7144 46.6567 51.7172 46.7911L52.2171 46.7805ZM52.2173 46.7885L51.7174 46.799L51.7174 46.7991L52.2173 46.7885ZM52.2173 46.7889H52.7174L52.7172 46.7782L52.2173 46.7889ZM52.2127 47.1008L52.712 47.1262L52.7121 47.1239L52.2127 47.1008ZM51.8582 48.6178L51.3988 48.4203L51.3988 48.4203L51.8582 48.6178ZM50.7535 50.1858L50.4105 49.822L50.4105 49.822L50.7535 50.1858ZM49.0652 51.2463L49.2468 51.7121L49.2468 51.7121L49.0652 51.2463ZM47.0545 51.6255V52.1255L47.0562 52.1255L47.0545 51.6255ZM15.9226 51.6255L15.9209 52.1255H15.9226V51.6255ZM13.9118 51.2463L14.0934 50.7804L14.0934 50.7804L13.9118 51.2463ZM12.2236 50.1858L12.5666 49.822L12.5666 49.822L12.2236 50.1858ZM11.1189 48.6178L10.6595 48.8153L10.6595 48.8153L11.1189 48.6178ZM10.7598 46.7885L10.7824 46.289C10.6478 46.2829 10.5165 46.3314 10.4181 46.4234C10.3198 46.5154 10.2627 46.6432 10.2599 46.7779L10.7598 46.7885ZM10.7599 46.7885L10.7373 47.288C10.8736 47.2942 11.0066 47.2443 11.1053 47.15C11.204 47.0556 11.2599 46.925 11.2599 46.7885H10.7599ZM10.7599 35.3493L10.2599 35.3439V35.3493H10.7599ZM10.7599 35.341L11.2599 35.3464V35.341H10.7599ZM10.7599 20.281V19.781C10.4838 19.781 10.2599 20.0048 10.2599 20.281H10.7599ZM10.76 20.281V20.781C10.8945 20.781 11.0232 20.7268 11.1173 20.6308C11.2113 20.5347 11.2628 20.4048 11.2599 20.2704L10.76 20.281ZM10.7599 20.273L11.2597 20.2625L11.2597 20.2624L10.7599 20.273ZM10.7599 20.2727H10.2597L10.26 20.2833L10.7599 20.2727ZM10.7645 19.9607L10.2651 19.9353L10.265 19.9376L10.7645 19.9607ZM11.119 18.4437L11.5783 18.6412L11.5783 18.6412L11.119 18.4437ZM12.2237 16.8757L12.5667 17.2395L12.5667 17.2395L12.2237 16.8757ZM13.9119 15.8152L13.7303 15.3494L13.7303 15.3494L13.9119 15.8152ZM15.9227 15.436L15.9227 14.936L15.921 14.936L15.9227 15.436ZM20.155 15.436V15.936C20.4311 15.936 20.655 15.7121 20.655 15.436H20.155ZM15.9213 15.1855H20.155V14.1855H15.9213V15.1855ZM12.0911 16.6462C13.1053 15.712 14.4829 15.1855 15.9213 15.1855V14.1855C14.243 14.1855 12.6205 14.799 11.4136 15.9107L12.0911 16.6462ZM10.5147 19.9494C10.5719 18.7104 11.1314 17.5303 12.0911 16.6462L11.4136 15.9107C10.2692 16.965 9.58564 18.3891 9.51578 19.9033L10.5147 19.9494ZM10.5098 20.2706C10.5077 20.164 10.5093 20.0575 10.5146 19.9514L9.51587 19.9014C9.5094 20.0307 9.50741 20.1603 9.50995 20.2901L10.5098 20.2706ZM10.5099 46.7766V20.2803H9.50985V46.7766H10.5099ZM10.8892 48.7166C10.6251 48.1025 10.4963 47.4466 10.5097 46.7868L9.50995 46.7664C9.49354 47.5706 9.65079 48.368 9.97051 49.1116L10.8892 48.7166ZM12.0521 50.3677C11.5488 49.8932 11.1537 49.3319 10.8892 48.7166L9.97051 49.1116C10.2907 49.8563 10.7664 50.5299 11.3661 51.0953L12.0521 50.3677ZM13.821 51.4792C13.1565 51.2201 12.5553 50.8421 12.0521 50.3677L11.3661 51.0953C11.9655 51.6605 12.6772 52.1066 13.4578 52.4109L13.821 51.4792ZM15.9217 51.8755C15.1996 51.8731 14.4855 51.7383 13.821 51.4792L13.4578 52.4109C14.2383 52.7152 15.0746 52.8726 15.9183 52.8755L15.9217 51.8755ZM15.9228 51.8755L15.9215 51.8755L15.9185 52.8755L15.9198 52.8755L15.9228 51.8755ZM30.6671 51.8755H15.9213V52.8755H30.6671V51.8755ZM30.6853 51.876C30.6871 51.876 30.689 51.876 30.6911 51.8761L30.6431 52.875C30.6572 52.8756 30.6713 52.876 30.6853 52.876V51.876ZM47.0558 51.876H30.6853V52.876H47.0558V51.876ZM50.886 50.4153C49.8718 51.3495 48.4942 51.876 47.0558 51.876V52.876C48.7341 52.876 50.3567 52.2625 51.5635 51.1508L50.886 50.4153ZM52.4624 47.1121C52.4053 48.3511 51.8457 49.5312 50.886 50.4153L51.5635 51.1508C52.708 50.0965 53.3915 48.6724 53.4614 47.1582L52.4624 47.1121ZM52.4674 46.791C52.4695 46.8975 52.4678 47.004 52.4625 47.1101L53.4613 47.1601C53.4677 47.0309 53.4697 46.9012 53.4672 46.7714L52.4674 46.791ZM52.4673 20.2849V46.7812H53.4673V20.2849H52.4673ZM52.088 18.3449C52.352 18.959 52.4809 19.6149 52.4674 20.2747L53.4672 20.2951C53.4836 19.4909 53.3263 18.6935 53.0066 17.9499L52.088 18.3449ZM50.9251 16.6938C51.4283 17.1683 51.8234 17.7297 52.088 18.3449L53.0066 17.9499C52.6864 17.2052 52.2107 16.5316 51.6111 15.9663L50.9251 16.6938ZM49.1561 15.5823C49.8206 15.8414 50.4219 16.2194 50.9251 16.6938L51.6111 15.9663C51.0116 15.4011 50.3 14.955 49.5194 14.6506L49.1561 15.5823ZM47.0554 15.186C47.7775 15.1885 48.4916 15.3233 49.1561 15.5823L49.5194 14.6506C48.7388 14.3463 47.9026 14.1889 47.0588 14.186L47.0554 15.186ZM47.0543 15.186L47.0556 15.186L47.0586 14.186L47.0573 14.186L47.0543 15.186ZM42.9521 15.186H47.0558V14.186H42.9521V15.186ZM42.4521 14.686V15.436H43.4521V14.686H42.4521ZM47.0546 14.936H42.9521V15.936H47.0546V14.936ZM49.2469 15.3494C48.5534 15.079 47.8088 14.9386 47.0563 14.936L47.0528 15.936C47.6837 15.9381 48.3063 16.056 48.8837 16.2811L49.2469 15.3494ZM51.0966 16.512C50.5693 16.0148 49.9405 15.6198 49.2469 15.3494L48.8837 16.2811C49.4611 16.5062 49.9795 16.8331 50.4106 17.2395L51.0966 16.512ZM52.3176 18.2462C52.0392 17.5985 51.6239 17.0091 51.0966 16.5119L50.4106 17.2395C50.8415 17.6458 51.1761 18.123 51.3989 18.6412L52.3176 18.2462ZM52.7173 20.2836C52.7321 19.5865 52.5961 18.8939 52.3176 18.2462L51.3989 18.6412C51.6216 19.1591 51.7292 19.71 51.7175 20.2624L52.7173 20.2836ZM52.2059 20.7729L52.206 20.7729L52.2287 19.7732L52.2287 19.7732L52.2059 20.7729ZM52.7173 20.281V20.273H51.7173V20.281H52.7173ZM52.7173 31.7122V20.281H51.7173V31.7122H52.7173ZM52.7172 31.726L52.7173 31.7176L51.7173 31.7067L51.7172 31.7151L52.7172 31.726ZM52.7172 46.7805V31.7205H51.7172V46.7805H52.7172ZM52.2171 47.2805H52.2172V46.2805H52.2171V47.2805ZM52.7172 46.7779L52.717 46.77L51.7172 46.7911L51.7174 46.799L52.7172 46.7779ZM52.7172 46.7782L52.7172 46.7779L51.7174 46.7991L51.7174 46.7995L52.7172 46.7782ZM52.7173 46.901V46.7889H51.7173V46.901H52.7173ZM52.7121 47.1239C52.7156 47.0498 52.7173 46.9755 52.7173 46.901H51.7173C51.7173 46.96 51.7159 47.0189 51.7132 47.0777L52.7121 47.1239ZM52.3175 48.8153C52.5495 48.2758 52.6826 47.705 52.712 47.1262L51.7133 47.0755C51.69 47.5344 51.5844 47.9887 51.3988 48.4203L52.3175 48.8153ZM51.0965 50.5496C51.6238 50.0524 52.0391 49.463 52.3175 48.8153L51.3988 48.4203C51.176 48.9385 50.8414 49.4157 50.4105 49.822L51.0965 50.5496ZM49.2468 51.7121C49.9404 51.4418 50.5692 51.0467 51.0965 50.5496L50.4105 49.822C49.9794 50.2284 49.461 50.5553 48.8836 50.7804L49.2468 51.7121ZM47.0562 52.1255C47.8087 52.123 48.5533 51.9825 49.2468 51.7121L48.8836 50.7804C48.3062 51.0056 47.6836 51.1234 47.0527 51.1255L47.0562 52.1255ZM15.9226 52.1255H47.0545V51.1255H15.9226V52.1255ZM13.7302 51.7121C14.4237 51.9825 15.1684 52.123 15.9209 52.1255L15.9243 51.1255C15.2934 51.1234 14.6709 51.0056 14.0934 50.7804L13.7302 51.7121ZM11.8806 50.5496C12.4078 51.0467 13.0367 51.4418 13.7302 51.7121L14.0934 50.7804C13.5161 50.5553 12.9976 50.2284 12.5666 49.822L11.8806 50.5496ZM10.6595 48.8153C10.938 49.463 11.3532 50.0524 11.8806 50.5496L12.5666 49.822C12.1357 49.4157 11.801 48.9385 11.5782 48.4203L10.6595 48.8153ZM10.2599 46.7779C10.2451 47.475 10.381 48.1677 10.6595 48.8153L11.5782 48.4203C11.3555 47.9024 11.2479 47.3515 11.2597 46.7991L10.2599 46.7779ZM10.7824 46.289L10.7824 46.289L10.7372 47.288L10.7373 47.288L10.7824 46.289ZM10.2599 46.7805V46.7885H11.2599V46.7805H10.2599ZM10.2599 35.3493V46.7805H11.2599V35.3493H10.2599ZM10.26 35.3355L10.2599 35.3439L11.2598 35.3548L11.2599 35.3464L10.26 35.3355ZM10.2599 20.281V35.341H11.2599V20.281H10.2599ZM10.76 19.781H10.7599V20.781H10.76V19.781ZM10.26 20.2836L10.2601 20.2915L11.2599 20.2704L11.2597 20.2625L10.26 20.2836ZM10.26 20.2833L10.26 20.2836L11.2597 20.2624L11.2597 20.2621L10.26 20.2833ZM10.2599 20.1605V20.2727H11.2599V20.1605H10.2599ZM10.265 19.9376C10.2616 20.0117 10.2599 20.0861 10.2599 20.1605H11.2599C11.2599 20.1015 11.2612 20.0426 11.2639 19.9838L10.265 19.9376ZM10.6596 18.2462C10.4276 18.7857 10.2945 19.3565 10.2651 19.9353L11.2638 19.9861C11.2871 19.5271 11.3927 19.0728 11.5783 18.6412L10.6596 18.2462ZM11.8806 16.5119C11.3533 17.0091 10.9381 17.5985 10.6596 18.2462L11.5783 18.6412C11.8011 18.123 12.1357 17.6458 12.5667 17.2395L11.8806 16.5119ZM13.7303 15.3494C13.0368 15.6198 12.4079 16.0148 11.8806 16.512L12.5667 17.2395C12.9977 16.8331 13.5162 16.5062 14.0935 16.2811L13.7303 15.3494ZM15.921 14.936C15.1685 14.9386 14.4238 15.079 13.7303 15.3494L14.0935 16.2811C14.671 16.056 15.2935 15.9381 15.9244 15.936L15.921 14.936ZM20.155 14.936H15.9227V15.936H20.155V14.936ZM20.655 15.436V14.6855H19.655V15.436H20.655Z" fill="#FF8419"/>
</svg>
