<svg width="33.00000000000001" height="31" xmlns="http://www.w3.org/2000/svg">
 <defs>
  <style>.cls-1{fill:#279e75;}.cls-2{fill:#e7ebed;}.cls-3{fill:none;stroke:#8dc1e3;}.cls-3,.cls-4{stroke-linecap:round;stroke-linejoin:round;stroke-width:0.75px;}.cls-4{fill:#7dcdff;stroke:#42a9e3;}</style>
 </defs>
 <title>Icons</title>
 <g>
  <title>background</title>
  <rect fill="none" id="canvas_background" height="402" width="582" y="-1" x="-1"/>
 </g>
 <g>
  <title>Layer 1</title>
  <path id="svg_2" d="m31,0.75a1.25,1.25 0 0 1 1.25,1.25l0,27a1.25,1.25 0 0 1 -1.25,1.25l-29,0a1.25,1.25 0 0 1 -1.25,-1.25l0,-27a1.25,1.25 0 0 1 1.25,-1.25l29,0m0,-0.75l-29,0a2,2 0 0 0 -2,2l0,27a2,2 0 0 0 2,2l29,0a2,2 0 0 0 2,-2l0,-27a2,2 0 0 0 -2,-2z" class="cls-2"/>
  <path stroke="null" id="svg_6" d="m56.790246,15.989248c0,0 0.517803,-2.349093 0,-3.14484c-0.518413,-0.795747 -0.725168,-1.325798 -1.865067,-1.705267s-0.724558,-0.303843 -1.553409,-0.265026c-0.828851,0.038148 -1.519865,0.530052 -1.519865,0.795078c0,0 -0.517803,0.038148 -0.724558,0.265695c-0.207365,0.227547 -0.552567,1.287651 -0.552567,1.553346s0.172601,2.046588 0.345202,2.425388l-0.205535,0.075626c-0.172601,2.197171 0.690404,2.462866 0.690404,2.462866c0.310438,2.046588 0.621486,1.175216 0.621486,1.705267s-0.311048,0.341321 -0.311048,0.341321s-0.275674,0.833225 -0.966078,1.136399c-0.690404,0.302504 -4.523,1.931476 -4.834658,2.272797c-0.311658,0.34199 -0.276284,1.932815 -0.276284,1.932815l16.434909,0c0,0 0.035984,-1.590824 -0.275674,-1.932815c-0.312268,-0.34199 -4.144864,-1.970293 -4.835268,-2.272797c-0.690404,-0.303174 -0.966078,-1.136399 -0.966078,-1.136399s-0.311048,0.188731 -0.311048,-0.341321s0.311048,0.341321 0.622095,-1.705267c0,0 0.862395,-0.265695 0.690404,-2.462866l-0.207365,0z" fill-opacity="null" stroke-opacity="null" stroke-width="null" fill="null"/>
  <path id="svg_8" d="m19.857089,12.030189c0,0 0.65759,-3.05382 0,-4.088291c-0.658365,-1.034471 -0.920936,-1.723538 -2.368564,-2.216847s-0.920161,-0.394996 -1.97277,-0.344534c-1.052609,0.049592 -1.93017,0.689067 -1.93017,1.033601c0,0 -0.65759,0.049592 -0.920161,0.345404c-0.263346,0.295812 -0.701739,1.673946 -0.701739,2.01935s0.219197,2.660565 0.438393,3.153004l-0.261022,0.098314c-0.219197,2.856323 0.876787,3.201726 0.876787,3.201726c0.394244,2.660565 0.789263,1.52778 0.789263,2.216847s-0.395019,0.443717 -0.395019,0.443717s-0.350095,1.083193 -1.226882,1.477318c-0.876787,0.393255 -5.744038,2.510919 -6.139831,2.954636c-0.395793,0.444588 -0.35087,2.512659 -0.35087,2.512659l20.871708,0c0,0 0.045698,-2.068072 -0.350095,-2.512659c-0.396568,-0.444588 -5.263819,-2.561381 -6.140606,-2.954636c-0.876787,-0.394126 -1.226882,-1.477318 -1.226882,-1.477318s-0.395019,0.24535 -0.395019,-0.443717s0.395019,0.443717 0.790038,-2.216847c0,0 1.095209,-0.345404 0.876787,-3.201726l-0.263346,0z" stroke-width="null" stroke="#FFB27C" fill="#FABA6F"/>
  <path stroke="#444444" id="svg_9" d="m24.054652,18.026002c-0.986298,0.842382 -1.370509,1.99222 -1.186017,3.086066l1.828516,-1.56078c0.002343,-0.0025 0.0082,-0.003999 0.009371,-0.005999c0.122994,-0.201472 0.271759,-0.394445 0.469721,-0.562921c1.03901,-0.887875 2.724032,-0.887375 3.764799,0c1.039595,0.886375 1.040767,2.325673 0.001171,3.214048c-0.199134,0.169976 -0.425795,0.296458 -0.662412,0.401943c-0.002343,0.001 -0.003514,0.003 -0.005857,0.004999l-1.829102,1.56128c1.281484,0.157978 2.630908,-0.169976 3.617206,-1.011358c1.658667,-1.415801 1.657495,-3.710978 0,-5.126779c-1.659838,-1.415801 -4.348729,-1.415801 -6.007396,-0.0005zm-0.650113,8.731772c-0.122409,0.202472 -0.270588,0.395444 -0.469136,0.56542c-1.039595,0.886875 -2.726961,0.886875 -3.766556,0c-1.039595,-0.886875 -1.039595,-2.326173 0,-3.214548c0.198548,-0.168976 0.424623,-0.295458 0.660655,-0.399944c0.002343,-0.003 0.002928,-0.005999 0.006443,-0.007999l1.82793,-1.56128c-1.280898,-0.157978 -2.629151,0.170976 -3.614863,1.011858c-1.658081,1.415301 -1.657495,3.710978 0,5.126779c1.659253,1.415301 4.348144,1.415301 6.007396,0c0.986298,-0.841882 1.37168,-1.99272 1.184846,-3.087066l-1.830273,1.56128c-0.001757,0.0035 -0.0041,0.004499 -0.006443,0.005499zm-2.996377,-1.590776l1.286755,1.098346c0.314514,0.268462 0.829919,0.268462 1.143848,0l4.862377,-4.150416c0.315686,-0.267962 0.315686,-0.7084 0.001171,-0.975863l-1.287927,-1.098346c-0.313928,-0.269462 -0.829333,-0.269462 -1.143262,-0.001l-4.862377,4.150916c-0.3151,0.268462 -0.3151,0.7084 -0.000586,0.976363z" stroke-width="0.5" fill="#666666"/>
 </g>
</svg>