<svg xmlns="http://www.w3.org/2000/svg" viewBox="0 0 16 16"><defs><style>.a{fill:#939596;stroke:none;stroke-linecap:round;stroke-linejoin:round;}</style></defs><title>Icons 3</title><path class="a" d="M15.05,9.64,13.67,8.57a5.43,5.43,0,0,0,0-1.14l1.38-1.08a.66.66,0,0,0,.16-.86L13.78,3a.67.67,0,0,0-.83-.3l-1.63.66a5,5,0,0,0-1-.57L10.1,1.08A.67.67,0,0,0,9.44.5H6.56a.67.67,0,0,0-.66.57L5.65,2.8a6.13,6.13,0,0,0-1,.57L3.05,2.71a.7.7,0,0,0-.83.3L.79,5.49A.68.68,0,0,0,1,6.36L2.33,7.43c0,.22,0,.4,0,.57s0,.36,0,.57L1,9.65a.66.66,0,0,0-.16.86L2.22,13a.67.67,0,0,0,.83.3l1.63-.66a5.35,5.35,0,0,0,1,.57l.25,1.72a.67.67,0,0,0,.66.58H9.44a.66.66,0,0,0,.66-.57l.25-1.73a5.71,5.71,0,0,0,1-.57l1.63.66a.73.73,0,0,0,.25,0,.66.66,0,0,0,.58-.34l1.44-2.49A.68.68,0,0,0,15.05,9.64ZM8,10.5A2.5,2.5,0,1,1,10.5,8,2.5,2.5,0,0,1,8,10.5Z"/></svg>
