<svg id="Слой_1" data-name="Слой 1" xmlns="http://www.w3.org/2000/svg" viewBox="0 0 33 31"><defs><style>.cls-2{fill:#ffb4c1;stroke:#ff8199;stroke-linecap:round;stroke-linejoin:round;stroke-width:0.75px;}.cls-3{fill:#ff8199;}</style></defs><rect class="cls-2" x="7.46" y="5.5" width="18.07" height="2.94"/><polygon class="cls-2" points="16.5 8.44 7.46 8.44 10.69 25.5 16.5 25.5 22.31 25.5 25.54 8.44 16.5 8.44"/><path class="cls-3" d="M16.64,13.56,17.38,15l-.63.38,1.87.21.9-1.85-.65.33-.48-.83a.73.73,0,0,0-.63-.38h-2.1a.77.77,0,0,0-.66.37l-.39.64,1.39.88Z"/><path class="cls-3" d="M20.05,16.29l-.4-.82-1.51.88.63,1.14H17.26v-.63L16,18.24l1.26,1.64v-.5h1a.69.69,0,0,0,.63-.38l.88-1.51.27-.43A.76.76,0,0,0,20.05,16.29Z"/><path class="cls-3" d="M15.62,16.48l-.76-1.64-2,.13.72.45-.47.93a.79.79,0,0,0,0,.76l.7,1.21h0l.39.66a.8.8,0,0,0,.67.4h.51V17.61H14.21L15,16.24Z"/></svg>
