<svg
  width="16"
  height="16"
  viewBox="0 0 16 16"
  fill="none"
  xmlns="http://www.w3.org/2000/svg">
  <path
    d="M5.74978 0.0140266C4.22825 0.120621 2.85799 0.741372 1.79904 1.80605C0.813858 2.79675 0.209995 4.04828 0.0437136 5.44905C-0.147572 7.05172 0.29376 8.66442 1.27269 9.9448C1.49899 10.242 1.89906 10.6596 2.18036 10.8966C2.57544 11.2264 2.98176 11.4898 3.4556 11.7205C4.12698 12.0478 4.77085 12.2272 5.59975 12.3174C5.82855 12.3413 6.49992 12.3375 6.75622 12.3112C7.63513 12.2171 8.45529 11.9575 9.19167 11.5412L9.3142 11.471L9.42297 11.5776C9.48298 11.6352 10.4294 12.5582 11.5271 13.6267C12.6236 14.6964 13.55 15.5968 13.585 15.6281C13.8688 15.8814 14.2476 16.0181 14.6077 15.9981C14.8327 15.9855 14.9728 15.9479 15.1828 15.8451C15.3478 15.7636 15.4491 15.6883 15.5866 15.5454C16.013 15.1002 16.1205 14.443 15.8579 13.8863C15.7804 13.7207 15.6904 13.5966 15.5329 13.4361C15.4578 13.3596 14.4964 12.4228 13.3987 11.3568C12.2998 10.2897 11.4008 9.41183 11.4008 9.40681C11.4008 9.40054 11.4321 9.34286 11.4696 9.2789C11.6384 8.99549 11.8222 8.59545 11.9409 8.25811C12.1685 7.61102 12.2798 7.01284 12.2973 6.32688C12.3223 5.31612 12.1185 4.3643 11.6834 3.46766C11.3846 2.85193 11.032 2.3478 10.5632 1.86374C10.0893 1.37592 9.5705 0.992181 8.96913 0.682431C7.9827 0.175798 6.83873 -0.0624695 5.74978 0.0140266ZM6.3774 2.48825C6.97501 2.51334 7.62763 2.73154 8.15898 3.08392C9.8668 4.21758 10.3419 6.47235 9.23043 8.1766C8.95413 8.60046 8.57906 8.97667 8.15023 9.25883C7.03502 9.9937 5.58475 10.0552 4.42078 9.4181C3.50061 8.91523 2.83799 8.06499 2.58544 7.06426C2.50042 6.72692 2.48167 6.56515 2.48167 6.17013C2.48167 5.87417 2.48542 5.79893 2.51043 5.64343C2.57169 5.24715 2.6692 4.92988 2.83549 4.58376C3.02427 4.18999 3.24431 3.8815 3.55562 3.56799C4.13448 2.98486 4.86712 2.61867 5.67477 2.50832C5.78729 2.49202 6.1186 2.47321 6.18111 2.47948C6.20237 2.48073 6.28988 2.48575 6.3774 2.48825Z"
    fill="#C4C4C4"
  />
</svg>
