<?xml version="1.0" standalone="no"?>
<!DOCTYPE svg PUBLIC "-//W3C//DTD SVG 20010904//EN"
 "http://www.w3.org/TR/2001/REC-SVG-20010904/DTD/svg10.dtd">
<svg version="1.0" xmlns="http://www.w3.org/2000/svg"
 width="16.000000pt" height="16.000000pt" viewBox="0 0 16.000000 16.000000"
 preserveAspectRatio="xMidYMid meet">

<g transform="translate(0.000000,16.000000) scale(0.100000,-0.100000)"
fill="#000000" stroke="none">
<path d="M48 128 l32 -33 32 33 33 32 -65 0 -65 0 33 -32z"/>
<path d="M0 80 l0 -65 32 33 33 32 -33 32 -32 33 0 -65z"/>
<path d="M125 110 l-29 -30 32 -33 32 -32 0 63 c0 34 -1 62 -3 62 -2 0 -16
-14 -32 -30z"/>
<path d="M45 30 l-29 -30 64 0 64 0 -29 30 c-16 17 -32 30 -35 30 -3 0 -19
-13 -35 -30z"/>
</g>
</svg>
