<svg id="Слой_1" data-name="Слой 1" xmlns="http://www.w3.org/2000/svg" viewBox="0 0 33 31"><defs><style>.cls-1{fill:#e7ebed;}.cls-2{fill:#7dcdff;}.cls-3{fill:none;stroke:#8dc1e3;}.cls-3,.cls-4{stroke-linecap:round;stroke-linejoin:round;stroke-width:0.75px;}.cls-4{fill:#ffbf8f;stroke:#ff8419;}</style></defs><title>Icons</title><path class="cls-1" d="M31,.75A1.25,1.25,0,0,1,32.25,2V29A1.25,1.25,0,0,1,31,30.25H2A1.25,1.25,0,0,1,.75,29V2A1.25,1.25,0,0,1,2,.75H31M31,0H2A2,2,0,0,0,0,2V29a2,2,0,0,0,2,2H31a2,2,0,0,0,2-2V2a2,2,0,0,0-2-2Z"/><path class="cls-2" d="M6.58,13v8.37H23V13Zm3.16,4.87a1.18,1.18,0,0,0,.47.47,1.41,1.41,0,0,0,.69.17,1.3,1.3,0,0,0,1-.49l.62.57a2,2,0,0,1-.73.55,2.59,2.59,0,0,1-1,.19,2.3,2.3,0,0,1-1.15-.28,2.12,2.12,0,0,1-.81-.76A2.19,2.19,0,0,1,8.6,17.2a2.07,2.07,0,0,1,1.1-1.87,2.44,2.44,0,0,1,1.15-.27,2.38,2.38,0,0,1,1,.19,2,2,0,0,1,.73.54l-.62.57a1.33,1.33,0,0,0-1-.49,1.41,1.41,0,0,0-.69.17,1.25,1.25,0,0,0-.47.47,1.47,1.47,0,0,0-.17.69A1.41,1.41,0,0,0,9.74,17.89Zm6.35.82a1.26,1.26,0,0,1-.59.46,2.33,2.33,0,0,1-1,.18,3.36,3.36,0,0,1-.95-.14,2.07,2.07,0,0,1-.73-.34l.32-.73a2.33,2.33,0,0,0,.63.32,2.39,2.39,0,0,0,.74.12,1.17,1.17,0,0,0,.6-.12.39.39,0,0,0,.2-.33.29.29,0,0,0-.12-.24.73.73,0,0,0-.29-.16l-.49-.13a6.43,6.43,0,0,1-.78-.23,1.23,1.23,0,0,1-.52-.36,1,1,0,0,1-.21-.66,1.18,1.18,0,0,1,.19-.66,1.33,1.33,0,0,1,.59-.46,2.34,2.34,0,0,1,1-.17,3.31,3.31,0,0,1,.77.09,2.75,2.75,0,0,1,.67.27l-.3.73a2.38,2.38,0,0,0-1.15-.32,1.07,1.07,0,0,0-.6.13.4.4,0,0,0-.19.34.35.35,0,0,0,.22.32,3.16,3.16,0,0,0,.68.2,6.43,6.43,0,0,1,.78.23,1.3,1.3,0,0,1,.52.35,1,1,0,0,1,.21.66A1.07,1.07,0,0,1,16.09,18.71Zm3.05.57H18.2l-1.79-4.15h1l1.26,3,1.28-3h1Z"/><polygon class="cls-3" points="6.58 5.5 6.58 25.5 22.96 25.5 22.96 10.25 18.21 5.5 6.58 5.5"/><polygon class="cls-3" points="18.21 5.5 22.96 10.25 18.21 10.25 18.21 5.5"/><polygon class="cls-4" points="24.2 8.78 24.2 5.5 22.96 5.5 21.72 5.5 21.72 8.78 19.5 8.78 22.96 12.91 26.42 8.78 24.2 8.78"/></svg>