<svg xmlns="http://www.w3.org/2000/svg" viewBox="0 0 32 32"><defs><style>.b{fill:#ffbf8f;}.b,.c{stroke:#ff8419;stroke-linecap:round;stroke-linejoin:round;stroke-width:0.75px;}.c{fill:none;}</style></defs><path class="b" d="M25.36,7.42a2.18,2.18,0,0,1,0,3.08l-1.1,1.1-3.8-3.81,1.09-1.1a2.18,2.18,0,0,1,3.08,0Z"/><path class="b" d="M24.26,11.6l-10,10h0l-3.81-3.81,10-10Z"/><path class="b" d="M10.49,17.75l3.81,3.81,0,0L9,23.05l1.46-5.26Z"/><path class="c" d="M25.44,15.86v7.53A2.56,2.56,0,0,1,22.89,26H8.55A2.56,2.56,0,0,1,6,23.39V10.08A2.55,2.55,0,0,1,8.55,7.53h7.54"/></svg>
