<svg xmlns="http://www.w3.org/2000/svg" viewBox="0 0 32 32"><defs><style>.a{fill:#ffbf8f;}.a,.c{stroke:#ff8419;stroke-linecap:round;stroke-linejoin:round;stroke-width:0.75px;}.b{fill:#e7ebed;}.c{fill:none;}</style></defs><rect class="a" x="6" y="6" width="20" height="20" rx="2"/><path class="b" d="M30,.75A1.25,1.25,0,0,1,31.25,2V30A1.25,1.25,0,0,1,30,31.25H2A1.25,1.25,0,0,1,.75,30V2A1.25,1.25,0,0,1,2,.75H30M30,0H2A2,2,0,0,0,0,2V30a2,2,0,0,0,2,2H30a2,2,0,0,0,2-2V2a2,2,0,0,0-2-2Z"/><polyline class="c" points="15.68 20.51 18.17 23 23 18.17"/><line class="c" x1="9.02" y1="9.74" x2="19.61" y2="9.74"/><line class="c" x1="9.02" y1="12.45" x2="19.61" y2="12.45"/><line class="c" x1="9.02" y1="15.18" x2="13.76" y2="15.18"/></svg>
