<svg width="16" height="16" viewBox="0 0 16 16" fill="none" xmlns="http://www.w3.org/2000/svg">
  <path d="M8 16C12.4183 16 16 12.4183 16 8C16 3.58172 12.4183 0 8 0C3.58172 0 0 3.58172 0 8C0 12.4183 3.58172 16 8 16Z" fill="#00656A"/>
  <path fill-rule="evenodd" clip-rule="evenodd" d="M8.86255 5.38454L10.5502 7.08045L6.57458 11.077L4.88788 9.38109L8.86255 5.38454ZM11.8308 4.97553L11.0782 4.21922C10.7873 3.92693 10.315 3.92693 10.0232 4.21922L9.30221 4.94369L10.9899 6.63961L11.8308 5.79455C12.0564 5.56783 12.0564 5.20223 11.8308 4.97553ZM4.0047 11.7648C3.97398 11.9037 4.09878 12.0282 4.23702 11.9944L6.11763 11.5362L4.43093 9.84029L4.0047 11.7648Z" fill="white"/>
</svg>
