<svg xmlns="http://www.w3.org/2000/svg" viewBox="0 0 32 32"><defs><style>.a{fill:#a5ddff;}.a,.b{stroke:#8dc1e3;}.a,.b,.d,.e{stroke-linecap:round;stroke-linejoin:round;stroke-width:0.75px;}.b,.e{fill:none;}.d{fill:#a9e1bd;}.d,.e{stroke:#5cb18e;}</style></defs><path class="a" d="M25.82,11.21,20.64,6v6.74h-9V6H7.26A1.22,1.22,0,0,0,6,7.17V24.83A1.22,1.22,0,0,0,7.26,26H24.74A1.22,1.22,0,0,0,26,24.83V11.63A.6.6,0,0,0,25.82,11.21Z"/><rect class="b" x="11.63" y="6" width="9.01" height="6.74"/><path class="d" d="M23.32,22.88a.61.61,0,0,1-.63.58H9.31a.61.61,0,0,1-.63-.58V16a.61.61,0,0,1,.63-.59H22.69a.61.61,0,0,1,.63.59Z"/><line class="e" x1="13.35" y1="18.01" x2="18.65" y2="18.01"/><line class="e" x1="13.35" y1="20.86" x2="18.65" y2="20.86"/></svg>
