<svg width="16" height="16" viewBox="0 0 16 16" fill="none" xmlns="http://www.w3.org/2000/svg">
<rect width="16" height="16" rx="2" fill="#0D666B" fill-opacity="0.8"/>
<path d="M10.2222 4H4.88889C4.4 4 4 4.4 4 4.88889V11.1111C4 11.6 4.4 12 4.88889 12H11.1111C11.6 12 12 11.6 12 11.1111V5.77778L10.2222 4ZM8 11.1111C7.24444 11.1111 6.66667 10.5333 6.66667 9.77778C6.66667 9.02222 7.24444 8.44444 8 8.44444C8.75556 8.44444 9.33333 9.02222 9.33333 9.77778C9.33333 10.5333 8.75556 11.1111 8 11.1111ZM9.33333 6.66667H4.88889V4.88889H9.33333V6.66667Z" fill="white"/>
</svg>
