<?xml version="1.0" encoding="UTF-8" standalone="no"?>
<svg
   xmlns:dc="http://purl.org/dc/elements/1.1/"
   xmlns:cc="http://creativecommons.org/ns#"
   xmlns:rdf="http://www.w3.org/1999/02/22-rdf-syntax-ns#"
   xmlns:svg="http://www.w3.org/2000/svg"
   xmlns="http://www.w3.org/2000/svg"
   xmlns:sodipodi="http://sodipodi.sourceforge.net/DTD/sodipodi-0.dtd"
   xmlns:inkscape="http://www.inkscape.org/namespaces/inkscape"
   width="82"
   height="63.731503"
   viewBox="0 0 82 63.731502"
   version="1.1"
   id="svg17"
   sodipodi:docname="logo_menu.svg"
   inkscape:version="0.92.1 r15371">
  <metadata
     id="metadata21">
    <rdf:RDF>
      <cc:Work
         rdf:about="">
        <dc:format>image/svg+xml</dc:format>
        <dc:type
           rdf:resource="http://purl.org/dc/dcmitype/StillImage" />
        <dc:title>logo menu</dc:title>
      </cc:Work>
    </rdf:RDF>
  </metadata>
  <sodipodi:namedview
     pagecolor="#ffffff"
     bordercolor="#666666"
     borderopacity="1"
     objecttolerance="10"
     gridtolerance="10"
     guidetolerance="10"
     inkscape:pageopacity="0"
     inkscape:pageshadow="2"
     inkscape:window-width="1920"
     inkscape:window-height="1018"
     id="namedview19"
     showgrid="false"
     inkscape:zoom="5.3636364"
     inkscape:cx="26.516935"
     inkscape:cy="7.6582433"
     inkscape:window-x="-8"
     inkscape:window-y="-8"
     inkscape:window-maximized="1"
     inkscape:current-layer="svg17" />
  <!-- Generator: Sketch 41 (35326) - http://www.bohemiancoding.com/sketch -->
  <title
     id="title2">logo menu</title>
  <desc
     id="desc4">Created with Sketch.</desc>
  <defs
     id="defs6" />
  <g
     id="Symbols"
     transform="matrix(1.5358469,0,0,1.5358469,-2.2777611,-2.0922074)"
     style="fill:none;fill-rule:evenodd;stroke:none;stroke-width:1">
    <g
       id="logo-menu">
      <g
         transform="translate(1,1)"
         id="g13">
        <path
           d="m 27.178435,0.36225 c 9.311478,0 17.197826,6.0585 19.888435,14.42525 H 34.204304 c -1.734456,-1.901667 -4.239587,-3.096333 -7.025869,-3.096333 -2.785696,0 -5.290826,1.194666 -7.025283,3.096333 H 7.290587 C 9.9811957,6.42075 17.867543,0.36225 27.178435,0.36225 Z M 47.06687,27.433 c -2.691196,8.36675 -10.576957,14.42525 -19.888435,14.42525 -9.310892,0 -17.1972393,-6.0585 -19.887848,-14.42525 h 12.863152 c 1.734457,1.901667 4.239,3.096333 7.024696,3.096333 2.786282,0 5.291413,-1.194666 7.025282,-3.096333 z"
           id="Fill-3"
           inkscape:connector-curvature="0"
           style="fill:#2a878e" />
        <path
           d="m 27.178435,6.47675 c 5.853717,0 10.909174,3.3944167 13.282826,8.31075 h -6.256957 c -1.734456,-1.901667 -4.239587,-3.096333 -7.025869,-3.096333 -2.785696,0 -5.290826,1.194666 -7.025283,3.096333 H 13.896196 C 16.269261,9.8711667 21.325304,6.47675 27.178435,6.47675 Z M 40.461261,27.433 c -2.373652,4.916333 -7.429109,8.31075 -13.282826,8.31075 -5.853131,0 -10.909174,-3.394417 -13.282239,-8.31075 h 6.257543 c 1.734457,1.901667 4.239,3.096333 7.024696,3.096333 2.786282,0 5.291413,-1.194666 7.025282,-3.096333 z"
           id="Fill-4"
           inkscape:connector-curvature="0"
           style="fill:#ffffff" />
        <path
           d="m 5.3559783,24.952667 v -4.499834 h -0.044609 l -0.567,1.43675 L 4.0095,23.57075 H 3.1085217 l -0.7565869,-1.736 -0.5558478,-1.393 -0.044609,0.01108 v 4.499834 H 0.48306522 V 17.257333 H 1.6957174 l 1.0905652,2.520584 0.756,1.857333 h 0.044609 l 0.7454348,-1.868417 1.0682609,-2.5095 h 1.2238043 v 7.695334 z m 2.592,0 V 17.257333 H 12.253891 V 18.42925 H 9.2163913 v 2.05625 h 2.6148917 v 1.14975 H 9.2163913 v 2.123333 h 3.0374997 v 1.194084 z m 9.1899787,0 -1.824848,-3.306334 -0.811761,-1.580833 -0.03346,0.01108 v 4.876084 H 13.188323 V 17.25733 h 1.168044 l 1.713326,3.140084 0.91213,1.724333 0.04461,-0.0105 V 17.25733 h 1.268413 v 7.695334 z m 4.828304,-6.545584 v 6.545584 h -1.268413 v -6.545584 h -1.702174 v -1.14975 h 4.683913 v 1.14975 z m 7.02,4.21225 c 0,0.368667 -0.05752,0.700584 -0.172565,0.995167 -0.115044,0.295167 -0.277631,0.547167 -0.489522,0.75775 -0.211304,0.21 -0.461348,0.370417 -0.750718,0.480667 -0.289369,0.110833 -0.608086,0.16625 -0.956739,0.16625 -0.422608,0 -0.785934,-0.06825 -1.090565,-0.20475 -0.304043,-0.1365 -0.550565,-0.320834 -0.739565,-0.553 -0.189,-0.232167 -0.328109,-0.501084 -0.417326,-0.80675 -0.08922,-0.30625 -0.133826,-0.628834 -0.133826,-0.96775 V 19.579 c 0,-0.273 0.04285,-0.548917 0.127956,-0.8295 0.0857,-0.28 0.222457,-0.534333 0.412044,-0.762417 0.189,-0.228666 0.433761,-0.4165 0.734282,-0.564083 0.300522,-0.147583 0.669131,-0.221083 1.107,-0.221083 0.407935,0 0.760109,0.07 1.056522,0.21 0.297,0.14 0.543522,0.322583 0.740152,0.547166 0.196631,0.225167 0.341022,0.478917 0.433761,0.763 0.09274,0.2835 0.139109,0.569334 0.139109,0.856917 z m -1.290718,-3.06075 c 0,-0.09567 -0.01643,-0.20825 -0.04989,-0.337166 -0.03346,-0.128917 -0.09098,-0.252584 -0.172565,-0.372167 -0.081,-0.117833 -0.190761,-0.219333 -0.328109,-0.303917 -0.136761,-0.08517 -0.313435,-0.127166 -0.528261,-0.127166 -0.215413,0 -0.395021,0.0385 -0.539413,0.116083 -0.144978,0.077 -0.260021,0.17325 -0.34513,0.287 -0.08511,0.116083 -0.146739,0.240333 -0.183718,0.37275 -0.03698,0.132417 -0.05517,0.257833 -0.05517,0.375667 l 0.01056,2.94875 c 0,0.368083 0.0857,0.677833 0.255913,0.930416 0.170804,0.250834 0.460174,0.37625 0.868109,0.37625 0.289369,0 0.539413,-0.098 0.750717,-0.293416 0.211304,-0.197167 0.316956,-0.464334 0.316956,-0.80325 z m 2.492218,5.394084 v -7.695334 h 1.268413 v 6.50125 h 2.992891 v 1.194084 z"
           id="Fill-5"
           inkscape:connector-curvature="0"
           style="fill:#ffffff" />
        <path
           d="m 42.581935,19.634417 c 0,0.331333 -0.04813,0.641083 -0.144979,0.928666 -0.09626,0.287584 -0.238891,0.538417 -0.428478,0.751917 -0.189,0.2135 -0.427891,0.3815 -0.717261,0.502833 -0.289369,0.121917 -0.626869,0.182584 -1.0125,0.182584 H 39.14413 v 2.95225 h -1.268413 v -7.695334 h 2.336087 c 0.363326,0 0.689674,0.04783 0.979044,0.1435 0.289369,0.09567 0.537652,0.2415 0.745435,0.436334 0.207782,0.196 0.367434,0.44275 0.478369,0.740833 0.111522,0.298667 0.167283,0.651 0.167283,1.056417 z m -1.257261,-0.028 c 0,-0.3815 -0.09274,-0.672584 -0.278218,-0.875 -0.185478,-0.20125 -0.467217,-0.302167 -0.845804,-0.302167 H 39.14413 v 2.377083 h 1.067674 c 0.378587,0 0.658566,-0.109083 0.839935,-0.324333 0.181957,-0.217583 0.272935,-0.508667 0.272935,-0.875583 z m 5.551435,5.34625 -1.156892,-3.206584 h -0.990195 v 3.206584 h -1.268413 v -7.695334 h 2.492217 c 0.318717,0 0.615717,0.04608 0.889826,0.137667 0.274696,0.09217 0.510065,0.230417 0.706696,0.41475 0.19663,0.184333 0.350413,0.41475 0.461348,0.69125 0.111521,0.2765 0.167282,0.599083 0.167282,0.967167 0,0.487083 -0.103891,0.907083 -0.311674,1.260583 -0.207782,0.354083 -0.515347,0.623 -0.923282,0.807333 l 1.323587,3.416584 z m 0.05576,-5.4845 c 0,-0.361084 -0.09274,-0.62825 -0.278218,-0.8015 -0.185478,-0.17325 -0.452543,-0.259584 -0.801195,-0.259584 h -1.123435 v 2.200334 h 1.112282 c 0.333979,0 0.599283,-0.09625 0.795913,-0.287584 0.196044,-0.191916 0.294653,-0.475416 0.294653,-0.851666 z m 6.941934,3.151166 c 0,0.368667 -0.05693,0.700584 -0.171978,0.995167 -0.115043,0.295167 -0.278217,0.547167 -0.489522,0.75775 -0.211304,0.21 -0.461934,0.370417 -0.751304,0.480667 -0.28937,0.110833 -0.608087,0.16625 -0.956739,0.16625 -0.422609,0 -0.785935,-0.06825 -1.089978,-0.20475 -0.304631,-0.1365 -0.550566,-0.320834 -0.740153,-0.553 -0.189,-0.232167 -0.328108,-0.501084 -0.417326,-0.80675 -0.08863,-0.30625 -0.133239,-0.628834 -0.133239,-0.96775 V 19.579 c 0,-0.273 0.04285,-0.548917 0.127957,-0.8295 0.08511,-0.28 0.222456,-0.534333 0.411456,-0.762417 0.189587,-0.228666 0.434348,-0.4165 0.734283,-0.564083 0.300522,-0.147583 0.669717,-0.221083 1.107,-0.221083 0.407935,0 0.760695,0.07 1.057109,0.21 0.296413,0.14 0.542934,0.322583 0.739565,0.547166 0.19663,0.225167 0.341609,0.478917 0.433761,0.763 0.09274,0.2835 0.139108,0.569334 0.139108,0.856917 z m -1.29013,-3.06075 c 0,-0.09567 -0.01702,-0.20825 -0.04989,-0.337166 -0.03346,-0.128917 -0.09098,-0.252584 -0.172566,-0.372167 -0.08159,-0.117833 -0.191347,-0.219333 -0.328108,-0.303917 -0.137348,-0.08517 -0.313435,-0.127166 -0.528848,-0.127166 -0.214826,0 -0.395022,0.0385 -0.539413,0.116083 -0.144978,0.077 -0.259435,0.17325 -0.345131,0.287 -0.08511,0.116083 -0.146152,0.240333 -0.18313,0.37275 -0.03757,0.132417 -0.05576,0.257833 -0.05576,0.375667 l 0.01115,2.94875 c 0,0.368083 0.08511,0.677833 0.255913,0.930416 0.170218,0.250834 0.459587,0.37625 0.867522,0.37625 0.28937,0 0.539413,-0.098 0.751304,-0.293416 0.211305,-0.197167 0.316957,-0.464334 0.316957,-0.80325 z"
           id="Fill-6"
           inkscape:connector-curvature="0"
           style="fill:#2a878e" />
        <path
           d="m 27.178435,5.4681667 c -4.346413,0 -8.28137,1.7505833 -11.129283,4.5815003 -1.364674,1.355666 -2.479304,2.959833 -3.271108,4.737833 h -0.363327 c 0.811761,-1.869 1.971587,-3.553083 3.399066,-4.97175 2.908369,-2.8904167 6.92726,-4.6783333 11.364652,-4.6783333 4.438565,0 8.456282,1.7879166 11.364652,4.6783333 1.427478,1.418667 2.587304,3.10275 3.399065,4.97175 H 41.578826 C 40.787609,13.0095 39.672391,11.405333 38.307717,10.049667 35.459804,7.21875 31.524848,5.4681667 27.178435,5.4681667 Z M 12.778044,27.433 c 0.791804,1.778 1.907021,3.382167 3.271108,4.737833 2.847913,2.830334 6.78287,4.5815 11.129283,4.5815 4.346413,0 8.281369,-1.751166 11.129282,-4.5815 C 39.672391,30.815167 40.787022,29.211 41.578826,27.433 h 0.363326 c -0.811761,1.869 -1.971587,3.553083 -3.399065,4.97175 -2.90837,2.890417 -6.926087,4.678333 -11.364652,4.678333 -4.437392,0 -8.456283,-1.787916 -11.364652,-4.678333 C 14.386304,30.986083 13.226478,29.302 12.414717,27.433 Z"
           id="Fill-7"
           inkscape:connector-curvature="0"
           style="fill:#ffffff" />
      </g>
    </g>
  </g>
</svg>
