<?xml version="1.0" encoding="UTF-8"?>
<svg width="78px" height="63px" viewBox="0 0 78 63" version="1.1" xmlns="http://www.w3.org/2000/svg" xmlns:xlink="http://www.w3.org/1999/xlink">
    <!-- Generator: Sketch 41 (35326) - http://www.bohemiancoding.com/sketch -->
    <title>logo normal</title>
    <desc>Created with Sketch.</desc>
    <defs></defs>
    <g id="Symbols" stroke="none" stroke-width="1" fill="none" fill-rule="evenodd">
        <g id="logo-normal">
            <g transform="translate(1.000000, 1.000000)">
                <path d="M38.2511304,0.522041587 C51.3561739,0.522041587 62.4554783,9.25299799 66.2422609,21.3103933 L48.1393913,21.3103933 C45.6983043,18.5698851 42.1725652,16.8482407 38.2511304,16.8482407 C34.3305217,16.8482407 30.8047826,18.5698851 28.3636957,21.3103933 L10.2608261,21.3103933 C14.0476087,9.25299799 25.146913,0.522041587 38.2511304,0.522041587 Z M66.2422609,39.533932 C62.4546522,51.5913273 51.3561739,60.3222837 38.2511304,60.3222837 C25.146913,60.3222837 14.0476087,51.5913273 10.2608261,39.533932 L28.3645217,39.533932 C30.8056087,42.2744402 34.3305217,43.9960846 38.2511304,43.9960846 C42.1725652,43.9960846 45.6983043,42.2744402 48.1385652,39.533932 L66.2422609,39.533932 L66.2422609,39.533932 Z" id="Fill-3" fill="#00888E"></path>
                <path d="M38.2511304,9.33370007 C46.4896957,9.33370007 53.6047826,14.2254231 56.9454783,21.3103933 L48.1393913,21.3103933 C45.6983043,18.5698851 42.1725652,16.8482407 38.2511304,16.8482407 C34.3305217,16.8482407 30.8047826,18.5698851 28.3636957,21.3103933 L19.5576087,21.3103933 C22.8974783,14.2254231 30.0133913,9.33370007 38.2511304,9.33370007 Z M56.9454783,39.533932 C53.6047826,46.6189022 46.4896957,51.5106252 38.2511304,51.5106252 C30.0133913,51.5106252 22.8974783,46.6189022 19.5576087,39.533932 L28.3645217,39.533932 C30.8056087,42.2744402 34.3305217,43.9960846 38.2511304,43.9960846 C42.1725652,43.9960846 45.6983043,42.2744402 48.1385652,39.533932 L56.9454783,39.533932 L56.9454783,39.533932 Z" id="Fill-4" fill="#000002"></path>
                <path d="M7.53804348,35.9595023 L7.53804348,29.4747538 L7.47526087,29.4747538 L6.67726087,31.5452666 L5.643,33.9680103 L4.37495652,33.9680103 L3.31013043,31.4662458 L2.52782609,29.4587816 L2.46504348,29.4747538 L2.46504348,35.9595023 L0.679869565,35.9595023 L0.679869565,24.8696913 L2.38656522,24.8696913 L3.92143478,28.5021256 L4.98543478,31.1787447 L5.04821739,31.1787447 L6.09734783,28.4861533 L7.60082609,24.8696913 L9.32321739,24.8696913 L9.32321739,35.9595023 L7.53804348,35.9595023 Z M11.1860435,35.9595023 L11.1860435,24.8696913 L17.2462174,24.8696913 L17.2462174,26.5585505 L12.9712174,26.5585505 L12.9712174,29.5218301 L16.6514348,29.5218301 L16.6514348,31.1787447 L12.9712174,31.1787447 L12.9712174,34.2386986 L17.2462174,34.2386986 L17.2462174,35.9595023 L11.1860435,35.9595023 Z M24.120087,35.9595023 L21.5517826,31.1947169 L20.4093043,28.9165644 L20.3622174,28.9325367 L20.3622174,35.9595023 L18.5613478,35.9595023 L18.5613478,24.8696913 L20.2052609,24.8696913 L22.6166087,29.3948924 L23.9003478,31.879844 L23.9631304,31.8647123 L23.9631304,24.8696913 L25.7483043,24.8696913 L25.7483043,35.9595023 L24.120087,35.9595023 Z M30.9154783,26.5266059 L30.9154783,35.9595023 L29.1303043,35.9595023 L29.1303043,26.5266059 L26.7346522,26.5266059 L26.7346522,24.8696913 L33.3268261,24.8696913 L33.3268261,26.5266059 L30.9154783,26.5266059 Z M40.7954783,32.5969156 C40.7954783,33.1282043 40.7145217,33.6065323 40.5526087,34.0310588 C40.3906957,34.4564261 40.1618696,34.8195854 39.8636522,35.1230589 C39.5662609,35.4256917 39.2143478,35.6568695 38.807087,35.8157517 C38.3998261,35.9754746 37.9512609,36.055336 37.4605652,36.055336 C36.8657826,36.055336 36.3544348,35.9569804 35.9256957,35.7602691 C35.4977826,35.5635577 35.1508261,35.2979134 34.8848261,34.963336 C34.6188261,34.6287586 34.4230435,34.2412205 34.2974783,33.8007216 C34.171913,33.3593821 34.1091304,32.8945045 34.1091304,32.4060888 L34.1091304,28.2154651 C34.1091304,27.8220425 34.1694348,27.4244166 34.2892174,27.0200655 C34.4098261,26.6165551 34.6023043,26.2500332 34.8691304,25.9213403 C35.1351304,25.5918068 35.4796087,25.3211186 35.9025652,25.108435 C36.3255217,24.8957514 36.8443043,24.7898299 37.4605652,24.7898299 C38.0346957,24.7898299 38.5303478,24.8907075 38.9475217,25.0924627 C39.3655217,25.2942179 39.7124783,25.5573403 39.9892174,25.8809893 C40.2659565,26.2054789 40.4691739,26.5711602 40.5996957,26.9805551 C40.7302174,27.3891094 40.7954783,27.8010263 40.7954783,28.2154651 L40.7954783,32.5969156 Z M38.978913,28.1860425 C38.978913,28.0481764 38.9557826,27.8859316 38.9086957,27.7001487 C38.8616087,27.5143658 38.7806522,27.3361487 38.6658261,27.1638161 C38.5518261,26.9940055 38.3973478,26.847733 38.2040435,26.7258392 C38.0115652,26.6031048 37.762913,26.5425782 37.4605652,26.5425782 C37.1573913,26.5425782 36.9046087,26.5980609 36.7013913,26.7098669 C36.4973478,26.8208323 36.3354348,26.959539 36.2156522,27.1234651 C36.0958696,27.2907538 36.0091304,27.4698115 35.957087,27.6606383 C35.9050435,27.8514651 35.8794348,28.0322041 35.8794348,28.2020148 L35.8943043,32.4514837 C35.8943043,32.9819318 36.014913,33.4283152 36.2544783,33.7923152 C36.4948696,34.1537933 36.9021304,34.3345323 37.4762609,34.3345323 C37.8835217,34.3345323 38.2354348,34.1933036 38.5328261,33.911687 C38.8302174,33.6275484 38.978913,33.2425323 38.978913,32.7541165 L38.978913,28.1860425 Z M42.4864783,35.9595023 L42.4864783,24.8696913 L44.2716522,24.8696913 L44.2716522,34.2386986 L48.4838696,34.2386986 L48.4838696,35.9595023 L42.4864783,35.9595023 L42.4864783,35.9595023 Z" id="Fill-5" fill="#000002"></path>
                <path d="M59.9301304,28.2953265 C59.9301304,28.7728139 59.8623913,29.2191972 59.726087,29.6336361 C59.5906087,30.0480749 59.3898696,30.4095529 59.1230435,30.7172296 C58.8570435,31.0249063 58.5208261,31.2670126 58.1135652,31.4418671 C57.7063043,31.6175622 57.2313043,31.7049895 56.6885652,31.7049895 L55.0917391,31.7049895 L55.0917391,35.9595023 L53.3065652,35.9595023 L53.3065652,24.8696913 L56.5943913,24.8696913 C57.1057391,24.8696913 57.5650435,24.9386244 57.9723043,25.0764904 C58.3795652,25.2143565 58.729,25.4245181 59.0214348,25.7052941 C59.3138696,25.9877514 59.5385652,26.343345 59.6946957,26.7729154 C59.8516522,27.2033265 59.9301304,27.7110771 59.9301304,28.2953265 Z M58.1606522,28.2549755 C58.1606522,27.7051926 58.0301304,27.2857099 57.769087,26.9940055 C57.5080435,26.7039824 57.1115217,26.5585505 56.5786957,26.5585505 L55.0917391,26.5585505 L55.0917391,29.9841857 L56.5943913,29.9841857 C57.1272174,29.9841857 57.5212609,29.8269848 57.7765217,29.5167862 C58.0326087,29.203225 58.1606522,28.7837423 58.1606522,28.2549755 Z M65.9737826,35.9595023 L64.3455652,31.3384675 L62.9519565,31.3384675 L62.9519565,35.9595023 L61.1667826,35.9595023 L61.1667826,24.8696913 L64.6743478,24.8696913 C65.122913,24.8696913 65.540913,24.9361024 65.9266957,25.068084 C66.3133043,25.2009061 66.6445652,25.4001394 66.9213043,25.6657837 C67.1980435,25.9314281 67.4144783,26.2634835 67.5706087,26.6619501 C67.7275652,27.0604166 67.8060435,27.5252942 67.8060435,28.0557422 C67.8060435,28.7576822 67.6598261,29.3629478 67.3673913,29.8723797 C67.0749565,30.3826523 66.642087,30.7701904 66.0679565,31.0358347 L67.9307826,35.9595023 L65.9737826,35.9595023 Z M66.0522609,28.0557422 C66.0522609,27.535382 65.9217391,27.1503658 65.6606957,26.9006937 C65.3996522,26.6510216 65.0237826,26.5266059 64.533087,26.5266059 L62.9519565,26.5266059 L62.9519565,29.6975252 L64.5173913,29.6975252 C64.9874348,29.6975252 65.3608261,29.5588185 65.6375652,29.2830864 C65.9134783,29.0065136 66.0522609,28.5979594 66.0522609,28.0557422 Z M75.8223913,32.5969156 C75.8223913,33.1282043 75.7422609,33.6065323 75.5803478,34.0310588 C75.4184348,34.4564261 75.1887826,34.8195854 74.8913913,35.1230589 C74.594,35.4256917 74.2412609,35.6568695 73.834,35.8157517 C73.4267391,35.9754746 72.9781739,36.055336 72.4874783,36.055336 C71.8926957,36.055336 71.3813478,35.9569804 70.9534348,35.7602691 C70.5246957,35.5635577 70.1785652,35.2979134 69.9117391,34.963336 C69.6457391,34.6287586 69.4499565,34.2412205 69.3243913,33.8007216 C69.1996522,33.3593821 69.1368696,32.8945045 69.1368696,32.4060888 L69.1368696,28.2154651 C69.1368696,27.8220425 69.1971739,27.4244166 69.3169565,27.0200655 C69.4367391,26.6165551 69.6300435,26.2500332 69.8960435,25.9213403 C70.1628696,25.5918068 70.5073478,25.3211186 70.9294783,25.108435 C71.3524348,24.8957514 71.8720435,24.7898299 72.4874783,24.7898299 C73.0616087,24.7898299 73.558087,24.8907075 73.9752609,25.0924627 C74.3924348,25.2942179 74.7393913,25.5573403 75.0161304,25.8809893 C75.2928696,26.2054789 75.496913,26.5711602 75.6266087,26.9805551 C75.7571304,27.3891094 75.8223913,27.8010263 75.8223913,28.2154651 L75.8223913,32.5969156 Z M74.0066522,28.1860425 C74.0066522,28.0481764 73.9826957,27.8859316 73.9364348,27.7001487 C73.8893478,27.5143658 73.8083913,27.3361487 73.6935652,27.1638161 C73.5787391,26.9940055 73.4242609,26.847733 73.2317826,26.7258392 C73.0384783,26.6031048 72.7906522,26.5425782 72.4874783,26.5425782 C72.1851304,26.5425782 71.9315217,26.5980609 71.7283043,26.7098669 C71.5242609,26.8208323 71.3631739,26.959539 71.2425652,27.1234651 C71.1227826,27.2907538 71.0368696,27.4698115 70.9848261,27.6606383 C70.9319565,27.8514651 70.9063478,28.0322041 70.9063478,28.2020148 L70.9220435,32.4514837 C70.9220435,32.9819318 71.0418261,33.4283152 71.2822174,33.7923152 C71.5217826,34.1537933 71.9290435,34.3345323 72.5031739,34.3345323 C72.9104348,34.3345323 73.2623478,34.1933036 73.5605652,33.911687 C73.8579565,33.6275484 74.0066522,33.2425323 74.0066522,32.7541165 L74.0066522,28.1860425 L74.0066522,28.1860425 Z" id="Fill-6" fill="#00888E"></path>
                <path d="M38.2511304,7.88022196 C32.1339565,7.88022196 26.5958696,10.4030026 22.5876957,14.482661 C20.6670435,16.4363239 19.0983043,18.7481022 17.983913,21.3103933 L17.4725652,21.3103933 C18.6150435,18.6169613 20.2473913,16.1900144 22.2564348,14.1455617 C26.3496957,9.98015737 32.005913,7.4035753 38.2511304,7.4035753 C44.498,7.4035753 50.1525652,9.98015737 54.2458261,14.1455617 C56.2548696,16.1900144 57.8872174,18.6169613 59.0296957,21.3103933 L58.5183478,21.3103933 C57.4047826,18.7481022 55.8352174,16.4363239 53.9145652,14.482661 C49.9063913,10.4030026 44.3683043,7.88022196 38.2511304,7.88022196 Z M17.983913,39.533932 C19.0983043,42.0962231 20.6678696,44.4080014 22.5876957,46.3616643 C26.5958696,50.440482 32.1339565,52.9641033 38.2511304,52.9641033 C44.3683043,52.9641033 49.9063913,50.440482 53.9145652,46.3616643 C55.8352174,44.4080014 57.4039565,42.0962231 58.5183478,39.533932 L59.0296957,39.533932 C57.8872174,42.227364 56.2548696,44.6543109 54.2458261,46.6987636 C50.1525652,50.8641679 44.498,53.44075 38.2511304,53.44075 C32.005913,53.44075 26.3496957,50.8641679 22.2564348,46.6987636 C20.2473913,44.6543109 18.6150435,42.227364 17.4725652,39.533932 L17.983913,39.533932 L17.983913,39.533932 Z" id="Fill-7" fill="#000002"></path>
            </g>
        </g>
    </g>
</svg>